<?xml version="1.0" encoding="utf-8"?>
<!-- Generator: Adobe Illustrator 14.0.0, SVG Export Plug-In . SVG Version: 6.00 Build 43363)  -->
<!DOCTYPE svg PUBLIC "-//W3C//DTD SVG 1.1//EN" "http://www.w3.org/Graphics/SVG/1.1/DTD/svg11.dtd">
<svg version="1.1" id="图层_1" xmlns="http://www.w3.org/2000/svg" xmlns:xlink="http://www.w3.org/1999/xlink" x="0px" y="0px"
	 width="612px" height="430px" viewBox="0 0 612 430" enable-background="new 0 0 612 430" xml:space="preserve">
<path fill="#FFFFFF" d="M297.782,253.268c-11.797,0-111.039-44.006-111.039-92.897V52.891l111.039-35.308l111.037,35.308V160.37
	C408.819,209.286,309.576,253.268,297.782,253.268z M202.811,62.087v98.308c0,37.358,80.107,75.82,94.972,79.42
	c14.864-3.572,94.97-41.932,94.97-79.42V62.087l-94.97-30.213L202.811,62.087z"/>
<text transform="matrix(0.9843 0 0 1 25.9375 393.6758)" fill="#FFFFFF" font-family="'HYh3gj'" font-size="109.9988">渗</text>
<text transform="matrix(0.9978 0 0 1 139.4546 393.4629)" fill="#FFFFFF" font-family="'HYh3gj'" font-size="106.0961">透</text>
<text transform="matrix(0.9565 0 0 1 249.7227 393.002)" fill="#FFFFFF" font-family="'HYh3gj'" font-size="111.6868">师</text>
<text transform="matrix(1.0217 0 0 1 356.5488 392.5938)" fill="#FFFFFF" font-family="'HYh3gj'" font-size="112.618">导</text>
<text transform="matrix(0.9628 0 0 1 473.8506 393.3691)" fill="#FFFFFF" font-family="'HYh3gj'" font-size="114.8372">航</text>
<path fill="#FFFFFF" d="M358.514,91.839c-10.426-16.435-26.063-23.74-36.487-17.348c-0.869,0.913-1.737,0.913-2.607,1.826
	c-6.08-4.566-13.899-8.218-21.718-8.218c-9.557,0-17.376,3.652-24.325,9.131c-0.869-0.913-2.606-1.827-3.475-2.739
	c-10.425-6.392-26.063,0.913-36.488,17.348c-9.556,16.436-9.556,34.697,0,42.001c3.476,1.827,6.95,2.74,11.294,1.827
	c-0.869,8.218-1.737,15.521-1.737,21.914c0,31.958,23.456,37.437,46.913,37.437v-27.393c-5.214-2.74-9.558-9.131-9.558-14.609
	c0-8.218,6.951-11.871,15.639-11.871c8.688,0,15.639,3.653,15.639,11.871c0,5.478-3.477,11.869-9.558,14.609v28.305
	c25.193,0,49.518-4.565,49.518-37.436c0-6.392-0.867-13.696-1.736-21.914c2.605,0,6.08-0.913,7.816-2.74
	C368.071,127.45,368.071,108.275,358.514,91.839z M281.195,129.275c-4.344,0-6.951-3.651-6.951-7.304
	c0-4.565,3.475-8.218,6.951-8.218c4.344,0,6.949,3.652,6.949,7.304C288.144,125.625,285.539,129.275,281.195,129.275z
	 M310.731,129.275c-4.343,0-6.949-3.651-6.949-7.304c0-4.565,2.606-8.218,6.949-8.218c4.344,0,6.951,3.652,6.951,7.304
	C317.683,125.625,314.206,129.275,310.731,129.275z"/>
</svg>
